<mxfile host="app.diagrams.net" modified="2024-01-22T10:48:22.753Z" agent="Mozilla/5.0 (Windows NT 10.0; Win64; x64) AppleWebKit/537.36 (KHTML, like Gecko) Chrome/120.0.0.0 Safari/537.36" etag="O6_F9k_54-seGdnDorVX" version="22.1.21" type="github">
  <diagram name="Page-1" id="hzxyXguT6aONyPur9d6D">
    <mxGraphModel dx="1434" dy="746" grid="1" gridSize="10" guides="1" tooltips="1" connect="1" arrows="1" fold="1" page="1" pageScale="1" pageWidth="850" pageHeight="1100" math="0" shadow="0">
      <root>
        <mxCell id="0" />
        <mxCell id="1" parent="0" />
        <mxCell id="gGQ2gIt7nyH7d9AVS0pc-1" value="User" style="sketch=0;outlineConnect=0;fontColor=#232F3E;gradientColor=none;strokeColor=#232F3E;fillColor=#ffffff;dashed=0;verticalLabelPosition=bottom;verticalAlign=top;align=center;html=1;fontSize=12;fontStyle=0;aspect=fixed;shape=mxgraph.aws4.resourceIcon;resIcon=mxgraph.aws4.user;" vertex="1" parent="1">
          <mxGeometry x="10" y="300" width="60" height="60" as="geometry" />
        </mxCell>
        <mxCell id="gGQ2gIt7nyH7d9AVS0pc-2" value="name" style="endArrow=block;endFill=1;html=1;edgeStyle=orthogonalEdgeStyle;align=left;verticalAlign=top;rounded=0;" edge="1" parent="1">
          <mxGeometry x="-1" relative="1" as="geometry">
            <mxPoint x="70" y="329.5" as="sourcePoint" />
            <mxPoint x="140" y="330" as="targetPoint" />
          </mxGeometry>
        </mxCell>
        <mxCell id="gGQ2gIt7nyH7d9AVS0pc-3" value="1" style="edgeLabel;resizable=0;html=1;align=left;verticalAlign=bottom;" connectable="0" vertex="1" parent="gGQ2gIt7nyH7d9AVS0pc-2">
          <mxGeometry x="-1" relative="1" as="geometry" />
        </mxCell>
        <mxCell id="gGQ2gIt7nyH7d9AVS0pc-4" value="" style="rounded=0;whiteSpace=wrap;html=1;" vertex="1" parent="1">
          <mxGeometry x="350" y="195" width="310" height="270" as="geometry" />
        </mxCell>
        <mxCell id="gGQ2gIt7nyH7d9AVS0pc-5" value="Trello" style="shape=cylinder3;whiteSpace=wrap;html=1;boundedLbl=1;backgroundOutline=1;size=15;" vertex="1" parent="1">
          <mxGeometry x="780" y="290" width="60" height="80" as="geometry" />
        </mxCell>
        <mxCell id="gGQ2gIt7nyH7d9AVS0pc-6" value="Browser (HTML)" style="rounded=0;whiteSpace=wrap;html=1;" vertex="1" parent="1">
          <mxGeometry x="150" y="295" width="100" height="75" as="geometry" />
        </mxCell>
        <mxCell id="gGQ2gIt7nyH7d9AVS0pc-7" value="name" style="endArrow=block;endFill=1;html=1;edgeStyle=orthogonalEdgeStyle;align=left;verticalAlign=top;rounded=0;" edge="1" parent="1">
          <mxGeometry x="-1" relative="1" as="geometry">
            <mxPoint x="260" y="310" as="sourcePoint" />
            <mxPoint x="340" y="310" as="targetPoint" />
          </mxGeometry>
        </mxCell>
        <mxCell id="gGQ2gIt7nyH7d9AVS0pc-8" value="2" style="edgeLabel;resizable=0;html=1;align=left;verticalAlign=bottom;" connectable="0" vertex="1" parent="gGQ2gIt7nyH7d9AVS0pc-7">
          <mxGeometry x="-1" relative="1" as="geometry" />
        </mxCell>
        <mxCell id="gGQ2gIt7nyH7d9AVS0pc-11" value="name" style="endArrow=block;endFill=1;html=1;edgeStyle=orthogonalEdgeStyle;align=left;verticalAlign=top;rounded=0;" edge="1" parent="1">
          <mxGeometry x="0.7143" relative="1" as="geometry">
            <mxPoint x="340" y="360" as="sourcePoint" />
            <mxPoint x="260" y="360" as="targetPoint" />
            <mxPoint as="offset" />
          </mxGeometry>
        </mxCell>
        <mxCell id="gGQ2gIt7nyH7d9AVS0pc-12" value="1" style="edgeLabel;resizable=0;html=1;align=left;verticalAlign=bottom;" connectable="0" vertex="1" parent="gGQ2gIt7nyH7d9AVS0pc-11">
          <mxGeometry x="-1" relative="1" as="geometry">
            <mxPoint x="-70" y="1" as="offset" />
          </mxGeometry>
        </mxCell>
        <mxCell id="gGQ2gIt7nyH7d9AVS0pc-13" value="name" style="endArrow=block;endFill=1;html=1;edgeStyle=orthogonalEdgeStyle;align=left;verticalAlign=top;rounded=0;" edge="1" parent="1">
          <mxGeometry x="-1" relative="1" as="geometry">
            <mxPoint x="680" y="320" as="sourcePoint" />
            <mxPoint x="760" y="320" as="targetPoint" />
          </mxGeometry>
        </mxCell>
        <mxCell id="gGQ2gIt7nyH7d9AVS0pc-14" value="2" style="edgeLabel;resizable=0;html=1;align=left;verticalAlign=bottom;" connectable="0" vertex="1" parent="gGQ2gIt7nyH7d9AVS0pc-13">
          <mxGeometry x="-1" relative="1" as="geometry" />
        </mxCell>
        <mxCell id="gGQ2gIt7nyH7d9AVS0pc-15" value="name" style="endArrow=block;endFill=1;html=1;edgeStyle=orthogonalEdgeStyle;align=left;verticalAlign=top;rounded=0;" edge="1" parent="1">
          <mxGeometry x="0.7143" relative="1" as="geometry">
            <mxPoint x="760" y="350" as="sourcePoint" />
            <mxPoint x="680" y="350" as="targetPoint" />
            <mxPoint as="offset" />
          </mxGeometry>
        </mxCell>
        <mxCell id="gGQ2gIt7nyH7d9AVS0pc-16" value="1" style="edgeLabel;resizable=0;html=1;align=left;verticalAlign=bottom;" connectable="0" vertex="1" parent="gGQ2gIt7nyH7d9AVS0pc-15">
          <mxGeometry x="-1" relative="1" as="geometry">
            <mxPoint x="-70" y="1" as="offset" />
          </mxGeometry>
        </mxCell>
        <mxCell id="gGQ2gIt7nyH7d9AVS0pc-17" value="HTML Templates" style="rounded=0;whiteSpace=wrap;html=1;" vertex="1" parent="1">
          <mxGeometry x="360" y="205" width="60" height="250" as="geometry" />
        </mxCell>
        <mxCell id="gGQ2gIt7nyH7d9AVS0pc-18" value="Trello API" style="rounded=0;whiteSpace=wrap;html=1;" vertex="1" parent="1">
          <mxGeometry x="610" y="210" width="40" height="240" as="geometry" />
        </mxCell>
        <mxCell id="gGQ2gIt7nyH7d9AVS0pc-19" value="App.py" style="rounded=0;whiteSpace=wrap;html=1;" vertex="1" parent="1">
          <mxGeometry x="445" y="300" width="120" height="60" as="geometry" />
        </mxCell>
      </root>
    </mxGraphModel>
  </diagram>
</mxfile>
